#Comment line ignore any data following # character 
#Hierarchical Translation and Rotation (.htr) file 
[Header]	
#Header keywords are followed by a single value 
FileType HTR		#Single word string
DataType HTRS		#Translation followed by rotation and scale data
FileVersion 1		#integer
NumSegments 14		#integer
NumFrames 5		#integer
DataFrameRate 30		#integer, data frame rate in this file
EulerRotationOrder ZYX
CalibrationUnits mm
RotationUnits Degrees
GlobalAxisofGravity Y
BoneLengthAxis Y
ScaleFactor 1.00
[SegmentNames&Hierarchy]
#CHILD	PARENT
MASTER GLOBAL
weapon MASTER
barrel_root weapon
middle_left_energyLow_part1 weapon
middle_left_energyLow_part2 weapon
middle_left_root weapon
middle_right_energyLow_part1 weapon
middle_top weapon
barrel1_top_root barrel_root
barrel2_top_root barrel_root
barrel3_top_root barrel_root
barrel1_top_back barrel1_top_root
barrel2_top_back barrel2_top_root
barrel3_top_back barrel3_top_root
[BasePosition]
#SegmentName Tx, Ty, Tz, Rx, Ry, Rz, BoneLength
MASTER 0.000000 0.000000 0.000000 -90.000000 0.000000 0.000000 10.000000 
weapon 0.000000 0.000000 0.000000 0.000000 0.000000 0.000000 10.000000 
barrel_root 0.000000 0.000000 0.000000 0.000000 0.000000 0.000000 10.000000 
middle_left_energyLow_part1 0.000000 0.000000 0.000000 0.000000 0.000000 0.000000 10.000000 
middle_left_energyLow_part2 0.000000 0.000000 0.000000 0.000000 0.000000 0.000000 10.000000 
middle_left_root 0.000000 0.000000 0.000000 0.000000 0.000000 0.000000 10.000000 
middle_right_energyLow_part1 0.000000 0.000000 0.000000 0.000000 0.000000 0.000000 10.000000 
middle_top 0.000000 0.000000 0.000000 0.000000 0.000000 0.000000 10.000000 
barrel1_top_root 0.000000 0.000000 0.000000 0.000000 0.000000 0.000000 10.000000 
barrel2_top_root 0.000000 0.000000 0.000000 0.000000 0.000000 0.000000 10.000000 
barrel3_top_root 0.000000 0.000000 0.000000 0.000000 0.000000 0.000000 10.000000 
barrel1_top_back 0.000000 0.000000 0.000000 0.000000 0.000000 0.000000 10.000000 
barrel2_top_back 0.000000 0.000000 0.000000 0.000000 0.000000 0.000000 10.000000 
barrel3_top_back 0.000000 0.000000 0.000000 0.000000 0.000000 0.000000 10.000000 
#Beginning of Data. Separated by tabs
#Fr	Tx	Ty	Tz	Rx	Ry	Rz	SF
[MASTER]
37 0.000000 0.000000 0.000000 0.000000 -0.000000 0.000000 0.000000
38 0.000000 0.000000 0.000000 0.000000 -0.000000 0.000000 0.000000
39 0.000000 0.000000 0.000000 0.000000 -0.000000 0.000000 0.000000
40 0.000000 0.000000 0.000000 0.000000 -0.000000 0.000000 0.000000
41 0.000000 0.000000 0.000000 0.000000 -0.000000 0.000000 0.000000
[weapon]
37 0.000000 -104.980545 30.104675 0.000000 0.000000 -0.000020 109.211746
38 -0.000000 -104.980545 30.104521 0.000000 0.000000 -0.000020 109.211700
39 -0.000038 -104.980469 30.104675 0.000000 0.000000 -0.000020 109.211678
40 -0.000076 -104.980385 30.104521 0.000000 0.000000 -0.000020 109.211555
41 0.000000 -104.980309 30.104597 0.000000 0.000000 -0.000020 109.211510
[barrel_root]
37 0.000000 322.811676 -55.258709 179.998428 -6.114166 179.998428 327.507080
38 0.000000 324.211121 -55.258636 179.998566 -20.920990 179.998566 328.886566
39 0.000029 325.318573 -55.258595 179.998688 -36.659821 179.998688 329.978302
40 0.000057 326.425995 -55.258556 179.998764 -53.001575 179.998764 331.070160
41 0.000010 327.202881 -55.258598 179.998810 -69.631676 179.998810 331.836182
[middle_left_energyLow_part1]
37 -126.211449 -30.653229 33.512215 0.001264 -46.513153 0.001264 134.134338
38 -131.394226 -30.653152 19.360153 0.001298 -39.474350 0.001298 136.304337
39 -137.122284 -30.653152 3.459963 0.001356 -29.860809 0.001356 140.549301
40 -142.732269 -30.653152 -12.260999 0.001438 -19.378675 0.001438 146.500671
41 -147.560852 -30.653379 -25.876192 0.001535 -9.762959 0.001535 152.916351
[middle_left_energyLow_part2]
37 -160.233047 -30.710827 12.929365 0.003109 45.640713 0.003109 163.661087
38 -165.134125 -30.037760 -11.442033 0.002454 32.848793 0.002454 168.233383
39 -168.111481 -29.245066 -41.572613 0.001992 17.788368 0.001992 175.627533
40 -169.587936 -28.584822 -67.185974 0.001741 5.245881 0.001741 184.637802
41 -169.986206 -28.308792 -78.007271 0.001660 0.001762 0.001660 189.160858
[middle_left_root]
37 -116.650986 -30.652847 -30.953407 0.002721 -38.889999 179.997269 124.519722
38 -106.555077 -30.652924 -40.984200 0.002844 -41.253723 179.997147 118.208672
39 -95.932426 -30.653000 -51.538548 0.002988 -43.742500 179.997009 113.132034
40 -85.836533 -30.653076 -61.569351 0.003141 -46.113377 179.996872 109.992302
41 -77.320984 -30.653076 -70.030121 0.003283 -48.109642 179.996719 108.730690
[middle_right_energyLow_part1]
37 116.806053 -29.615250 33.512215 0.003168 -46.511379 179.996841 125.075119
38 121.988739 -29.615250 19.360001 0.002750 -39.477886 179.997253 127.016235
39 127.716827 -29.615097 3.459887 0.002342 -29.859125 179.997650 131.151108
40 133.326965 -29.615173 -12.260999 0.002030 -19.377024 179.997971 137.125748
41 138.155380 -29.615326 -25.876268 0.001821 -9.761330 179.998184 143.643860
[middle_top]
37 -3.220520 20.723064 11.617352 5.456342 0.001579 0.001737 23.974569
38 -3.220539 27.646837 10.663809 5.557841 0.001577 0.001738 29.806648
39 -3.220463 33.968243 17.440308 5.637070 0.001576 0.001739 38.319412
40 -3.220463 39.980656 33.599770 5.691540 0.001575 0.001740 52.323692
41 -3.220501 45.055126 52.886612 5.746009 0.001574 0.001741 69.550911
[barrel1_top_root]
37 0.000081 96.240509 0.000132 0.000000 -0.000000 0.000000 96.240509
38 0.000081 96.240509 0.000132 0.000000 -0.000000 0.000000 96.240509
39 0.000081 96.240509 0.000132 0.000000 -0.000000 0.000000 96.240509
40 0.000081 96.240509 0.000132 0.000000 -0.000000 0.000000 96.240509
41 0.000081 96.240509 0.000132 0.000000 -0.000000 0.000000 96.240509
[barrel2_top_root]
37 -0.000009 124.139923 0.000132 179.998825 -73.003799 179.998825 124.139923
38 -0.000009 124.139923 0.000132 179.998825 -78.435410 179.998825 124.139923
39 -0.000009 124.139923 0.000132 179.998825 -85.156036 179.998825 124.139923
40 -0.000009 124.139923 0.000132 0.001174 -87.351440 0.001174 124.139923
41 -0.000009 124.139923 0.000132 0.001178 -79.608437 0.001178 124.139923
[barrel3_top_root]
37 0.000101 69.591400 0.000123 179.996902 45.533493 179.996902 69.591400
38 0.000101 69.591400 0.000123 179.996429 51.600227 179.996429 69.591400
39 0.000101 69.591400 0.000123 179.995575 59.283691 179.995575 69.591400
40 0.000101 69.591400 0.000123 179.993820 68.130356 179.993820 69.591400
41 0.000101 69.591400 0.000123 179.989059 77.675774 179.989059 69.591400
[barrel1_top_back]
37 -3.343935 98.041893 186.671844 -37.734650 0.002107 0.001034 210.878571
38 -3.343935 98.041893 186.671844 -38.592903 0.002115 0.001018 210.878571
39 -3.343935 98.041893 186.671844 -39.374619 0.002122 0.001004 210.878571
40 -3.343935 98.041893 186.671844 -40.068722 0.002128 0.000991 210.878571
41 -3.343935 98.041893 186.671844 -40.669426 0.002133 0.000980 210.878571
[barrel2_top_back]
37 3.886122 70.142326 185.630630 -19.218210 0.001914 0.001359 198.478668
38 3.886122 70.142326 185.630630 -19.654764 0.001919 0.001352 198.478668
39 3.886122 70.142326 185.630630 -20.051409 0.001923 0.001345 198.478668
40 3.886122 70.142326 185.630630 -20.408094 0.001928 0.001339 198.478668
41 3.886122 70.142326 185.630630 -20.714706 0.001931 0.001334 198.478668
[barrel3_top_back]
37 -0.050068 125.495209 180.152344 -28.720963 0.002020 0.001196 219.553894
38 -0.050068 125.495209 180.152344 -29.456724 0.002027 0.001183 219.553894
39 -0.050068 125.495209 180.152344 -30.142506 0.002034 0.001171 219.553894
40 -0.050068 125.495209 180.152344 -30.772949 0.002041 0.001160 219.553894
41 -0.050068 125.495209 180.152344 -31.342731 0.002046 0.001150 219.553894
